<svg xmlns="http://www.w3.org/2000/svg" width="32" height="32" viewBox="0 0 32 32" fill="currentColor" stroke="#currentColor">
  <path d="m9.752 9.489 2.302.705a7 7 0 0 1 1.81-.873l.885-2.239a9 9 0 0 1 2.433 0l.884 2.239c.649.204 1.258.5 1.81.873l2.302-.705c.588.56 1.1 1.2 1.519 1.901l-1.2 2.088a7 7 0 0 1 .446 1.959l1.987 1.361a9 9 0 0 1-.539 2.372l-2.383.364a7 7 0 0 1-1.253 1.57l.176 2.403a9 9 0 0 1-2.191 1.057l-1.77-1.636a7 7 0 0 1-2.01 0l-1.77 1.636A9 9 0 0 1 11 23.507l.175-2.403a7 7 0 0 1-1.253-1.57l-2.383-.364A9 9 0 0 1 7 16.798l1.987-1.361a7 7 0 0 1 .446-1.959L8.234 11.39a9 9 0 0 1 1.518-1.901ZM15.965 20a4 4 0 1 0 0-8 4 4 0 0 0 0 8Z"/>
</svg>
