<svg xmlns="http://www.w3.org/2000/svg" width="32" height="32" viewBox="0 0 32 32" fill="none"><path d="M26.957 4.886a1 1 0 0 0-1.414 0L14.647 15.782a6.8 6.8 0 0 0-1.407 2.058l-.003.006c-.307.7.403 1.413 1.104 1.11a6.7 6.7 0 0 0 2.083-1.416L27.31 6.653a1 1 0 0 0 0-1.414zm-8.039 3.245c.311.032.622-.071.843-.292l.737-.737c.274-.274.145-.736-.236-.804C19.078 6.088 17.67 6 16 6 8 6 6 8 6 16s2 10 10 10 10-2 10-10c0-1.507-.071-2.801-.24-3.909-.059-.39-.53-.529-.808-.251l-.757.757a1.03 1.03 0 0 0-.293.821c.064.734.098 1.587.098 2.582 0 4.015-.55 5.722-1.414 6.586S20.014 24 16 24s-5.722-.55-6.586-1.414S8 20.015 8 16c0-4.014.55-5.721 1.414-6.585S11.986 8 16 8c1.151 0 2.112.046 2.918.131" fill="#8492a6"/></svg>